<svg xmlns="http://www.w3.org/2000/svg" width="960" height="420" viewBox="0 0 960 420" role="img" aria-label="Price watch illustration">
  <defs>
    <linearGradient id="bg" x1="0" y1="0" x2="1" y2="1">
      <stop offset="0" stop-color="#fff7ed"/>
      <stop offset="1" stop-color="#ecfeff"/>
    </linearGradient>
    <linearGradient id="card" x1="0" y1="0" x2="1" y2="1">
      <stop offset="0" stop-color="#f97316"/>
      <stop offset="1" stop-color="#0ea5e9"/>
    </linearGradient>
  </defs>
  <rect width="960" height="420" fill="url(#bg)"/>
  <rect x="52" y="48" width="856" height="324" rx="28" fill="#ffffff" stroke="#fed7aa" stroke-width="3"/>
  <path d="M142 286 L276 224 L384 244 L514 154 L650 196 L804 102" fill="none" stroke="#16a34a" stroke-width="18" stroke-linecap="round" stroke-linejoin="round"/>
  <path d="M764 104 L804 102 L790 140" fill="none" stroke="#16a34a" stroke-width="18" stroke-linecap="round" stroke-linejoin="round"/>
  <rect x="116" y="86" width="180" height="244" rx="18" fill="url(#card)" transform="rotate(-6 206 208)"/>
  <rect x="136" y="112" width="140" height="172" rx="12" fill="#fff7ed" opacity=".88" transform="rotate(-6 206 208)"/>
  <circle cx="206" cy="198" r="38" fill="#facc15"/>
  <rect x="508" y="238" width="272" height="54" rx="12" fill="#0f172a" opacity=".9"/>
  <rect x="546" y="258" width="122" height="14" rx="7" fill="#facc15"/>
  <rect x="690" y="258" width="54" height="14" rx="7" fill="#22c55e"/>
</svg>
