<svg xmlns="http://www.w3.org/2000/svg" width="960" height="420" viewBox="0 0 960 420" role="img" aria-label="Deck consultation illustration">
  <defs>
    <linearGradient id="bg" x1="0" y1="0" x2="1" y2="1">
      <stop offset="0" stop-color="#ecfdf5"/>
      <stop offset="1" stop-color="#fdf2f8"/>
    </linearGradient>
  </defs>
  <rect width="960" height="420" fill="url(#bg)"/>
  <rect x="94" y="70" width="332" height="220" rx="28" fill="#ffffff" stroke="#86efac" stroke-width="4"/>
  <rect x="536" y="116" width="330" height="232" rx="28" fill="#ffffff" stroke="#f9a8d4" stroke-width="4"/>
  <path d="M210 290 L168 344 L286 296" fill="#ffffff" stroke="#86efac" stroke-width="4" stroke-linejoin="round"/>
  <path d="M668 348 L720 390 L734 342" fill="#ffffff" stroke="#f9a8d4" stroke-width="4" stroke-linejoin="round"/>
  <rect x="146" y="122" width="80" height="116" rx="12" fill="#22c55e"/>
  <rect x="242" y="122" width="80" height="116" rx="12" fill="#0ea5e9"/>
  <rect x="338" y="122" width="42" height="116" rx="12" fill="#f59e0b"/>
  <rect x="584" y="164" width="232" height="22" rx="11" fill="#f472b6"/>
  <rect x="584" y="212" width="180" height="18" rx="9" fill="#94a3b8"/>
  <rect x="584" y="252" width="226" height="18" rx="9" fill="#94a3b8"/>
  <circle cx="820" cy="164" r="28" fill="#facc15"/>
</svg>
