<svg xmlns="http://www.w3.org/2000/svg" width="960" height="420" viewBox="0 0 960 420" role="img" aria-label="New card illustration">
  <defs>
    <linearGradient id="bg" x1="0" y1="0" x2="1" y2="1">
      <stop offset="0" stop-color="#eef2ff"/>
      <stop offset="1" stop-color="#fef3c7"/>
    </linearGradient>
    <linearGradient id="shine" x1="0" y1="0" x2="1" y2="1">
      <stop offset="0" stop-color="#2563eb"/>
      <stop offset=".55" stop-color="#7c3aed"/>
      <stop offset="1" stop-color="#f59e0b"/>
    </linearGradient>
  </defs>
  <rect width="960" height="420" fill="url(#bg)"/>
  <circle cx="720" cy="118" r="74" fill="#fef08a" opacity=".9"/>
  <path d="M720 16 L738 80 L806 70 L754 116 L792 176 L720 146 L648 176 L686 116 L634 70 L702 80 Z" fill="#facc15" opacity=".75"/>
  <rect x="356" y="48" width="248" height="324" rx="26" fill="url(#shine)" transform="rotate(5 480 210)"/>
  <rect x="388" y="88" width="184" height="206" rx="16" fill="#eff6ff" opacity=".92" transform="rotate(5 480 210)"/>
  <circle cx="480" cy="184" r="54" fill="#22d3ee" opacity=".85"/>
  <path d="M448 184 L480 130 L512 184 L480 238 Z" fill="#ffffff" opacity=".9"/>
  <rect x="222" y="282" width="198" height="34" rx="17" fill="#1d4ed8"/>
  <rect x="536" y="286" width="210" height="34" rx="17" fill="#7c3aed"/>
</svg>
